<svg width="20" height="20" viewBox="0 0 20 20" fill="none" xmlns="http://www.w3.org/2000/svg">
<path d="M19.1654 15.8333C19.1654 16.2754 18.9898 16.6993 18.6772 17.0118C18.3646 17.3244 17.9407 17.5 17.4987 17.5H2.4987C2.05667 17.5 1.63275 17.3244 1.32019 17.0118C1.00763 16.6993 0.832031 16.2754 0.832031 15.8333V6.66667C0.832031 6.22464 1.00763 5.80072 1.32019 5.48816C1.63275 5.17559 2.05667 5 2.4987 5H5.83203L7.4987 2.5H12.4987L14.1654 5H17.4987C17.9407 5 18.3646 5.17559 18.6772 5.48816C18.9898 5.80072 19.1654 6.22464 19.1654 6.66667V15.8333Z" stroke="#323232" stroke-linecap="round" stroke-linejoin="round"/>
<path d="M10.0013 14.1667C11.8423 14.1667 13.3346 12.6743 13.3346 10.8333C13.3346 8.99238 11.8423 7.5 10.0013 7.5C8.16035 7.5 6.66797 8.99238 6.66797 10.8333C6.66797 12.6743 8.16035 14.1667 10.0013 14.1667Z" stroke="#323232" stroke-linecap="round" stroke-linejoin="round"/>
</svg>
