<svg width="20" height="20" viewBox="0 0 20 20" fill="none" xmlns="http://www.w3.org/2000/svg">
<path d="M15.6263 2.91783C15.982 2.91783 16.3341 2.98788 16.6627 3.12399C16.9913 3.26009 17.2899 3.45959 17.5414 3.71108C17.7929 3.96257 17.9924 4.26113 18.1285 4.58972C18.2646 4.91831 18.3346 5.2705 18.3346 5.62616V14.3787C18.3346 14.7343 18.2646 15.0865 18.1285 15.4151C17.9924 15.7437 17.7929 16.0422 17.5414 16.2937C17.2899 16.5452 16.9913 16.7447 16.6627 16.8808C16.3341 17.0169 15.982 17.087 15.6263 17.087H4.3763C3.65801 17.087 2.96913 16.8017 2.46122 16.2937C1.95331 15.7858 1.66797 15.097 1.66797 14.3787V5.62533C1.66797 4.90703 1.95331 4.21816 2.46122 3.71024C2.96913 3.20233 3.65801 2.91699 4.3763 2.91699H15.6263V2.91783ZM15.6263 4.16783H4.3763C3.98953 4.16783 3.6186 4.32147 3.3451 4.59496C3.07161 4.86845 2.91797 5.23938 2.91797 5.62616V14.3787C2.91797 15.1837 3.5713 15.837 4.3763 15.837H15.6263C16.0131 15.837 16.384 15.6833 16.6575 15.4099C16.931 15.1364 17.0846 14.7654 17.0846 14.3787V5.62533C17.0846 5.23855 16.931 4.86762 16.6575 4.59413C16.384 4.32064 16.0131 4.16699 15.6263 4.16699V4.16783ZM6.68047 7.39366C7.17714 7.39366 7.52964 7.46199 7.93214 7.65533C7.9938 7.68493 8.04903 7.72639 8.09468 7.77733C8.14032 7.82828 8.17549 7.88772 8.19816 7.95226C8.22083 8.01679 8.23057 8.08517 8.22682 8.15347C8.22307 8.22177 8.2059 8.28866 8.1763 8.35033C8.1467 8.41199 8.10524 8.46722 8.05429 8.51287C8.00335 8.55851 7.94391 8.59368 7.87937 8.61635C7.81483 8.63902 7.74646 8.64876 7.67816 8.64501C7.60986 8.64126 7.54297 8.62409 7.4813 8.59449C7.2313 8.47449 7.0313 8.43616 6.68047 8.43616C5.95797 8.43616 5.42714 9.09949 5.42714 9.99616C5.42714 10.8937 5.9588 11.5595 6.68047 11.5595C7.03714 11.5595 7.33964 11.4095 7.49714 11.142L7.5013 11.1295V10.5178H7.18797C7.06327 10.5178 6.94271 10.4731 6.84821 10.3917C6.7537 10.3104 6.69152 10.1978 6.67297 10.0745L6.66797 9.99783C6.66797 9.73616 6.86047 9.51949 7.11214 9.48199L7.1888 9.47699H8.0238C8.28547 9.47699 8.5013 9.66866 8.5388 9.92033L8.54464 9.99783L8.54297 11.287L8.53797 11.3337L8.52047 11.4087L8.5038 11.4545C8.18964 12.1962 7.46964 12.6012 6.68047 12.6012C5.32547 12.6012 4.38547 11.4237 4.38547 9.99616C4.38547 8.56866 5.32464 7.39366 6.68047 7.39366ZM10.5255 7.49533C10.7871 7.49533 11.0038 7.68866 11.0405 7.93949L11.0463 8.01616V11.9853C11.046 12.1166 10.9962 12.243 10.9067 12.3391C10.8173 12.4352 10.6949 12.494 10.5639 12.5037C10.433 12.5134 10.3032 12.4733 10.2006 12.3914C10.098 12.3095 10.0301 12.1918 10.0105 12.062L10.0046 11.9853V8.01616C10.0046 7.72866 10.238 7.49533 10.5255 7.49533ZM13.0221 7.49533L14.6863 7.50116C14.8183 7.50082 14.9455 7.55061 15.0422 7.64047C15.1389 7.73034 15.1979 7.85356 15.2072 7.98524C15.2165 8.11691 15.1755 8.24722 15.0924 8.3498C15.0093 8.45238 14.8904 8.51958 14.7596 8.53783L14.683 8.54283L13.5405 8.53866V10.0003H14.4763C14.738 10.0003 14.9546 10.1937 14.9913 10.4453L14.9971 10.522C14.9971 10.6468 14.9522 10.7675 14.8707 10.862C14.7892 10.9565 14.6764 11.0186 14.553 11.037L14.4763 11.0428L13.5405 11.042V11.9712C13.5407 12.096 13.496 12.2168 13.4146 12.3114C13.3333 12.4061 13.2206 12.4684 13.0971 12.487L13.0205 12.492C12.8956 12.4922 12.7749 12.4475 12.6802 12.3662C12.5855 12.2848 12.5232 12.1721 12.5046 12.0487L12.4996 11.9712V8.01449C12.5001 7.88983 12.5453 7.76948 12.6269 7.67528C12.7086 7.58109 12.8213 7.51931 12.9446 7.50116L13.0221 7.49533Z" fill="#323232"/>
</svg>
