<svg width="40" height="40" viewBox="0 0 40 40" fill="none" xmlns="http://www.w3.org/2000/svg">
<rect x="0.5" y="0.5" width="39" height="39" rx="19.5" fill="#3884F7"/>
<path d="M17.4993 11.6665C15.316 11.6665 13.541 13.4415 13.541 15.6248C13.541 17.7665 15.216 19.4998 17.3993 19.5748C17.466 19.5665 17.5327 19.5665 17.5827 19.5748C17.5993 19.5748 17.6077 19.5748 17.6243 19.5748C17.6327 19.5748 17.6327 19.5748 17.641 19.5748C19.7743 19.4998 21.4493 17.7665 21.4577 15.6248C21.4577 13.4415 19.6827 11.6665 17.4993 11.6665Z" fill="white"/>
<path d="M21.7328 21.7919C19.4078 20.2419 15.6161 20.2419 13.2745 21.7919C12.2161 22.5002 11.6328 23.4586 11.6328 24.4836C11.6328 25.5086 12.2161 26.4586 13.2661 27.1586C14.4328 27.9419 15.9661 28.3336 17.4995 28.3336C19.0328 28.3336 20.5661 27.9419 21.7328 27.1586C22.7828 26.4502 23.3661 25.5002 23.3661 24.4669C23.3578 23.4419 22.7828 22.4919 21.7328 21.7919Z" fill="white"/>
<path d="M26.6578 16.1166C26.7911 17.7333 25.6411 19.1499 24.0495 19.3416C24.0411 19.3416 24.0411 19.3416 24.0328 19.3416H24.0078C23.9578 19.3416 23.9078 19.3416 23.8661 19.3583C23.0578 19.3999 22.3161 19.1416 21.7578 18.6666C22.6161 17.8999 23.1078 16.7499 23.0078 15.4999C22.9495 14.8249 22.7161 14.2083 22.3661 13.6833C22.6828 13.5249 23.0495 13.4249 23.4245 13.3916C25.0578 13.2499 26.5161 14.4666 26.6578 16.1166Z" fill="white"/>
<path d="M28.3249 23.8252C28.2582 24.6335 27.7415 25.3335 26.8749 25.8085C26.0415 26.2668 24.9915 26.4835 23.9499 26.4585C24.5499 25.9168 24.8999 25.2418 24.9665 24.5252C25.0499 23.4918 24.5582 22.5002 23.5749 21.7085C23.0165 21.2668 22.3665 20.9168 21.6582 20.6585C23.4999 20.1252 25.8165 20.4835 27.2415 21.6335C28.0082 22.2502 28.3999 23.0252 28.3249 23.8252Z" fill="white"/>
<rect x="0.5" y="0.5" width="39" height="39" rx="19.5" stroke="#A8CBFF"/>
</svg>
