<svg width="24" height="24" viewBox="0 0 24 24" fill="none" xmlns="http://www.w3.org/2000/svg">
<path d="M0 12C0 5.37258 5.37258 0 12 0C18.6274 0 24 5.37258 24 12C24 18.6274 18.6274 24 12 24C5.37258 24 0 18.6274 0 12Z" fill="#0077B5"/>
<path fill-rule="evenodd" clip-rule="evenodd" d="M8.65899 7.41135C8.65899 8.1959 8.06844 8.82367 7.1202 8.82367H7.10282C6.18984 8.82367 5.59961 8.1959 5.59961 7.41135C5.59961 6.6102 6.20781 6 7.13813 6C8.06844 6 8.64134 6.6102 8.65899 7.41135ZM8.47988 9.93892V18.1098H5.76042V9.93892H8.47988ZM18.2872 18.1098L18.2873 13.4249C18.2873 10.9151 16.9457 9.74706 15.1562 9.74706C13.7123 9.74706 13.0659 10.5401 12.7049 11.0965V9.93914H9.98516C10.021 10.7059 9.98516 18.11 9.98516 18.11H12.7049V13.5467C12.7049 13.3025 12.7226 13.0589 12.7945 12.8841C12.991 12.3962 13.4386 11.8911 14.1899 11.8911C15.1743 11.8911 15.5678 12.6404 15.5678 13.7384V18.1098H18.2872Z" fill="white"/>
</svg>
