<svg width="56" height="48" viewBox="0 0 56 48" fill="none" xmlns="http://www.w3.org/2000/svg">
<rect x="0.5" y="0.5" width="55" height="47" rx="9.5" fill="white"/>
<g clip-path="url(#clip0_1986_120954)">
<path d="M37.9987 19.333H17.9987C17.8219 19.333 17.6523 19.4032 17.5273 19.5283C17.4023 19.6533 17.332 19.8229 17.332 19.9997C17.332 20.1765 17.4023 20.3461 17.5273 20.4711C17.6523 20.5961 17.8219 20.6663 17.9987 20.6663H37.9987C38.1755 20.6663 38.3451 20.5961 38.4701 20.4711C38.5951 20.3461 38.6654 20.1765 38.6654 19.9997C38.6654 19.8229 38.5951 19.6533 38.4701 19.5283C38.3451 19.4032 38.1755 19.333 37.9987 19.333Z" fill="#323232"/>
<path d="M34.668 23.333H21.3346C21.1578 23.333 20.9883 23.4032 20.8632 23.5283C20.7382 23.6533 20.668 23.8229 20.668 23.9997C20.668 24.1765 20.7382 24.3461 20.8632 24.4711C20.9883 24.5961 21.1578 24.6663 21.3346 24.6663H34.668C34.8448 24.6663 35.0143 24.5961 35.1394 24.4711C35.2644 24.3461 35.3346 24.1765 35.3346 23.9997C35.3346 23.8229 35.2644 23.6533 35.1394 23.5283C35.0143 23.4032 34.8448 23.333 34.668 23.333Z" fill="#323232"/>
<path d="M31.3333 27.333H24.6667C24.4899 27.333 24.3203 27.4032 24.1953 27.5283C24.0702 27.6533 24 27.8229 24 27.9997C24 28.1765 24.0702 28.3461 24.1953 28.4711C24.3203 28.5961 24.4899 28.6663 24.6667 28.6663H31.3333C31.5101 28.6663 31.6797 28.5961 31.8047 28.4711C31.9298 28.3461 32 28.1765 32 27.9997C32 27.8229 31.9298 27.6533 31.8047 27.5283C31.6797 27.4032 31.5101 27.333 31.3333 27.333Z" fill="#323232"/>
</g>
<rect x="0.5" y="0.5" width="55" height="47" rx="9.5" stroke="#EEEEEE"/>
<defs>
<clipPath id="clip0_1986_120954">
<rect width="24" height="24" fill="white" transform="translate(16 12)"/>
</clipPath>
</defs>
</svg>
