<svg width="20" height="20" viewBox="0 0 20 20" fill="none" xmlns="http://www.w3.org/2000/svg">
<path d="M10 0.833008C9.33696 0.833008 8.70107 1.0964 8.23223 1.56524C7.76339 2.03408 7.5 2.66997 7.5 3.33301V9.99967C7.5 10.6627 7.76339 11.2986 8.23223 11.7674C8.70107 12.2363 9.33696 12.4997 10 12.4997C10.663 12.4997 11.2989 12.2363 11.7678 11.7674C12.2366 11.2986 12.5 10.6627 12.5 9.99967V3.33301C12.5 2.66997 12.2366 2.03408 11.7678 1.56524C11.2989 1.0964 10.663 0.833008 10 0.833008V0.833008Z" stroke="#323232" stroke-linecap="round" stroke-linejoin="round"/>
<path d="M15.8346 8.33301V9.99967C15.8346 11.5468 15.2201 13.0305 14.1261 14.1245C13.0321 15.2184 11.5484 15.833 10.0013 15.833C8.45421 15.833 6.97047 15.2184 5.87651 14.1245C4.78255 13.0305 4.16797 11.5468 4.16797 9.99967V8.33301" stroke="#323232" stroke-linecap="round" stroke-linejoin="round"/>
<path d="M10 15.833V19.1663" stroke="#323232" stroke-linecap="round" stroke-linejoin="round"/>
<path d="M6.66797 19.167H13.3346" stroke="#323232" stroke-linecap="round" stroke-linejoin="round"/>
</svg>
