<svg width="20" height="20" viewBox="0 0 20 20" fill="none" xmlns="http://www.w3.org/2000/svg">
<path d="M10.0013 10.8337C10.4615 10.8337 10.8346 10.4606 10.8346 10.0003C10.8346 9.54009 10.4615 9.16699 10.0013 9.16699C9.54106 9.16699 9.16797 9.54009 9.16797 10.0003C9.16797 10.4606 9.54106 10.8337 10.0013 10.8337Z" stroke="#323232" stroke-width="2" stroke-linecap="round" stroke-linejoin="round"/>
<path d="M10.0013 4.99967C10.4615 4.99967 10.8346 4.62658 10.8346 4.16634C10.8346 3.7061 10.4615 3.33301 10.0013 3.33301C9.54106 3.33301 9.16797 3.7061 9.16797 4.16634C9.16797 4.62658 9.54106 4.99967 10.0013 4.99967Z" stroke="#323232" stroke-width="2" stroke-linecap="round" stroke-linejoin="round"/>
<path d="M10.0013 16.6667C10.4615 16.6667 10.8346 16.2936 10.8346 15.8333C10.8346 15.3731 10.4615 15 10.0013 15C9.54106 15 9.16797 15.3731 9.16797 15.8333C9.16797 16.2936 9.54106 16.6667 10.0013 16.6667Z" stroke="#323232" stroke-width="2" stroke-linecap="round" stroke-linejoin="round"/>
</svg>
