<svg xmlns="http://www.w3.org/2000/svg" width="22" height="29" viewBox="0 0 22 29">
    <g fill="none" fill-rule="evenodd">
        <g fill-rule="nonzero">
            <g>
                <g>
                    <g>
                        <g>
                            <g>
                                <g>
                                    <g>
                                        <path fill="#EF6060" d="M21.917 25.855c0 1.414-1.145 2.56-2.559 2.56H2.525C1.111 28.414 0 27.268 0 25.888V2.525C0 1.111 1.145 0 2.525 0h13.601v5.858c0 .337.27.64.64.64h5.15v19.357zM17.405 5.218V1.01l3.737 4.208h-3.737z" transform="translate(-77 -303) translate(8 141) translate(0 32) translate(58 32) translate(1 88) translate(10 10)"/>
                                        <path fill="#FFF" d="M4.1 20v-2.505h1.284c.843 0 1.503-.2 1.98-.603.477-.402.715-.951.715-1.648 0-.459-.109-.868-.327-1.228-.218-.36-.53-.637-.935-.832-.405-.196-.875-.293-1.409-.293H2.635V20H4.1zm1.308-3.691H4.1v-2.232h1.342c.362.007.645.117.85.332.205.215.308.497.308.845 0 .338-.102.599-.306.781-.203.182-.498.274-.886.274zM11.288 20c.62-.003 1.18-.146 1.674-.43.495-.283.878-.682 1.15-1.196.272-.514.408-1.102.408-1.763v-.327c0-.66-.139-1.25-.416-1.77-.276-.519-.661-.92-1.154-1.201-.493-.282-1.053-.422-1.678-.422H9.085V20h2.202zm-.03-1.177h-.708v-4.746h.722c.577 0 1.014.187 1.314.56.3.372.45.92.45 1.642v.376c-.007.697-.162 1.232-.465 1.607-.302.374-.74.561-1.313.561zM17.048 20v-2.905h2.813v-1.182H17.05v-1.836h3.164v-1.186h-4.629V20h1.465z" transform="translate(-77 -303) translate(8 141) translate(0 32) translate(58 32) translate(1 88) translate(10 10)"/>
                                    </g>
                                </g>
                            </g>
                        </g>
                    </g>
                </g>
            </g>
        </g>
    </g>
</svg>
