<svg width="21" height="20" viewBox="0 0 21 20" fill="none" xmlns="http://www.w3.org/2000/svg">
<path d="M2.24938 0.37674L20.3094 9.01417C20.4919 9.10133 20.6461 9.23839 20.754 9.40949C20.8619 9.58059 20.9191 9.77874 20.9191 9.98103C20.9191 10.1833 20.8619 10.3815 20.754 10.5526C20.6461 10.7237 20.4919 10.8607 20.3094 10.9479L2.24938 19.5853C2.06424 19.674 1.85752 19.7076 1.65382 19.6822C1.45012 19.6568 1.25801 19.5733 1.10035 19.4419C0.942694 19.3104 0.826124 19.1364 0.764511 18.9406C0.702897 18.7448 0.698835 18.5354 0.752808 18.3373L2.55966 11.7133C2.58178 11.6321 2.62731 11.5593 2.69056 11.5038C2.75382 11.4483 2.83201 11.4127 2.91538 11.4013L11.6668 10.2125C11.7034 10.2073 11.738 10.1927 11.7673 10.1702C11.7966 10.1476 11.8195 10.1179 11.834 10.0839L11.8494 10.0307C11.8561 9.98289 11.8465 9.93415 11.8221 9.89245C11.7977 9.85075 11.7599 9.81853 11.7148 9.80103L11.6677 9.78817L2.92481 8.59931C2.84159 8.58781 2.76359 8.5521 2.7005 8.49663C2.63741 8.44116 2.59201 8.36837 2.56995 8.28731L0.752808 1.6256C0.698617 1.42748 0.702514 1.21796 0.764034 1.022C0.825554 0.826032 0.942105 0.65188 1.0998 0.520283C1.2575 0.388686 1.44971 0.30519 1.65352 0.279741C1.85733 0.254292 2.06416 0.287962 2.24938 0.37674Z" fill="#3884F7"/>
</svg>
