<svg width="30" height="30" viewBox="0 0 30 30" fill="none" xmlns="http://www.w3.org/2000/svg">
<rect x="0.5" y="0.5" width="29" height="29" rx="14.5" fill="#F9F9F9"/>
<path d="M18 13C18 12.2044 17.6839 11.4413 17.1213 10.8787C16.5587 10.3161 15.7956 10 15 10C14.2044 10 13.4413 10.3161 12.8787 10.8787C12.3161 11.4413 12 12.2044 12 13C12 16.5 10.5 17.5 10.5 17.5H19.5C19.5 17.5 18 16.5 18 13Z" fill="#323232" stroke="#323232" stroke-linecap="round" stroke-linejoin="round"/>
<path d="M15.8648 19.5C15.7769 19.6515 15.6507 19.7773 15.4989 19.8648C15.3471 19.9522 15.175 19.9982 14.9998 19.9982C14.8246 19.9982 14.6525 19.9522 14.5007 19.8648C14.3488 19.7773 14.2227 19.6515 14.1348 19.5" fill="#323232"/>
<path d="M15.8648 19.5C15.7769 19.6515 15.6507 19.7773 15.4989 19.8648C15.3471 19.9522 15.175 19.9982 14.9998 19.9982C14.8246 19.9982 14.6525 19.9522 14.5007 19.8648C14.3488 19.7773 14.2227 19.6515 14.1348 19.5" stroke="#323232" stroke-linecap="round" stroke-linejoin="round"/>
<rect x="0.5" y="0.5" width="29" height="29" rx="14.5" stroke="#EEEEEE"/>
</svg>
