<svg width="25" height="19" viewBox="0 0 25 19" fill="none" xmlns="http://www.w3.org/2000/svg">
<path fill-rule="evenodd" clip-rule="evenodd" d="M10.2488 16.0342L24.1152 2.16789L22.8352 0.887954L8.96888 14.7543L2.56921 8.35462L1.28927 9.63456L9.20887 17.5542L10.4888 16.2742L10.2488 16.0342Z" fill="white"/>
<path d="M24.1152 2.16789L24.4687 2.52144L24.8223 2.16789L24.4687 1.81434L24.1152 2.16789ZM10.2488 16.0342L9.89526 15.6807L9.54171 16.0342L9.89526 16.3878L10.2488 16.0342ZM22.8352 0.887954L23.1888 0.534401L22.8352 0.180848L22.4817 0.534401L22.8352 0.887954ZM8.96888 14.7543L8.61533 15.1078L8.96888 15.4614L9.32243 15.1078L8.96888 14.7543ZM2.56921 8.35462L2.92276 8.00107L2.56921 7.64751L2.21565 8.00107L2.56921 8.35462ZM1.28927 9.63456L0.935719 9.281L0.582166 9.63456L0.935719 9.98811L1.28927 9.63456ZM9.20887 17.5542L8.85531 17.9077L9.20887 18.2613L9.56242 17.9077L9.20887 17.5542ZM10.4888 16.2742L10.8424 16.6278L11.1959 16.2742L10.8424 15.9207L10.4888 16.2742ZM23.7616 1.81434L9.89526 15.6807L10.6024 16.3878L24.4687 2.52144L23.7616 1.81434ZM22.4817 1.24151L23.7616 2.52144L24.4687 1.81434L23.1888 0.534401L22.4817 1.24151ZM9.32243 15.1078L23.1888 1.24151L22.4817 0.534401L8.61533 14.4007L9.32243 15.1078ZM2.21565 8.70817L8.61533 15.1078L9.32243 14.4007L2.92276 8.00107L2.21565 8.70817ZM1.64283 9.98811L2.92276 8.70817L2.21565 8.00107L0.935719 9.281L1.64283 9.98811ZM9.56242 17.2006L1.64283 9.281L0.935719 9.98811L8.85531 17.9077L9.56242 17.2006ZM10.1352 15.9207L8.85531 17.2006L9.56242 17.9077L10.8424 16.6278L10.1352 15.9207ZM9.89526 16.3878L10.1352 16.6278L10.8424 15.9207L10.6024 15.6807L9.89526 16.3878Z" fill="white"/>
</svg>
