<svg width="20" height="20" viewBox="0 0 20 20" fill="none" xmlns="http://www.w3.org/2000/svg">
<path d="M15.3913 14.0248L15.7163 16.6582C15.7997 17.3498 15.058 17.8332 14.4663 17.4748L11.583 15.7582C11.383 15.6415 11.333 15.3915 11.4413 15.1915C11.858 14.4248 12.083 13.5582 12.083 12.6915C12.083 9.6415 9.46633 7.15817 6.24967 7.15817C5.59133 7.15817 4.94967 7.25817 4.34967 7.45817C4.04133 7.55817 3.74133 7.27484 3.81633 6.95817C4.57467 3.92484 7.49133 1.6665 10.9747 1.6665C15.0413 1.6665 18.333 4.7415 18.333 8.53317C18.333 10.7832 17.1747 12.7748 15.3913 14.0248Z" fill="#3884F7"/>
<path d="M10.8346 12.6915C10.8346 13.6832 10.468 14.5999 9.8513 15.3249C9.0263 16.3249 7.71797 16.9665 6.2513 16.9665L4.0763 18.2582C3.70964 18.4832 3.24297 18.1749 3.29297 17.7499L3.5013 16.1082C2.38464 15.3332 1.66797 14.0915 1.66797 12.6915C1.66797 11.2249 2.4513 9.9332 3.6513 9.16654C4.39297 8.6832 5.28464 8.4082 6.2513 8.4082C8.78463 8.4082 10.8346 10.3249 10.8346 12.6915Z" fill="#3884F7"/>
</svg>
